<svg width="184" height="64" viewBox="0 0 184 64" fill="none" xmlns="http://www.w3.org/2000/svg">
<g filter="url(#filter0_d_33_404)">
<rect x="4" width="42" height="56" fill="#FBB731"/>
<path fill-rule="evenodd" clip-rule="evenodd" d="M44.5 7H47.5C58.2644 7.01239 66.9876 15.7356 67 26.5C67 27.3284 66.3284 28 65.5 28H26.5C25.6716 28 25 27.3284 25 26.5C25.0124 15.7356 33.7356 7.01239 44.5 7ZM44.4999 9.99996C35.9723 10.0102 28.8533 16.5086 28.0675 25H63.9324C63.1467 16.5085 56.0277 10.0102 47.5 9.99996H44.4999Z" fill="#443737"/>
<path fill-rule="evenodd" clip-rule="evenodd" d="M59.5 37.1084H65.5001C66.3285 37.1084 67.0001 37.7739 67 38.5949V41.5677C66.9951 45.6704 63.6401 48.9951 59.5 49H32.5C28.3599 48.9951 25.0049 45.6704 25 41.5677V38.5949C25 37.7739 25.6716 37.1084 26.5 37.1084H47.4999C47.8245 37.1084 48.1403 37.2127 48.3999 37.4057L53.5 41.1961L58.6 37.4057C58.8596 37.2127 59.1754 37.1084 59.5 37.1084ZM59.5 46.0271C61.9853 46.0271 64 44.0306 64 41.5677V40.0813H59.9995L54.4 44.2434C53.8667 44.6397 53.1333 44.6397 52.6 44.2434L47.0005 40.0813H28V41.5677C28 44.0306 30.0147 46.0271 32.5 46.0271H59.5Z" fill="#443737"/>
<path d="M65.5 31.0361H26.5C25.6716 31.0361 25 31.7158 25 32.5542C25 33.3925 25.6716 34.0723 26.5 34.0723H65.5C66.3284 34.0723 67 33.3926 67 32.5542C67 31.7157 66.3284 31.0361 65.5 31.0361Z" fill="#443737"/>
<path d="M38.4096 15.8555C37.5712 15.8555 36.8915 16.5351 36.8915 17.3735V18.8916C36.8915 19.73 37.5712 20.4097 38.4096 20.4097C39.248 20.4097 39.9277 19.73 39.9277 18.8916V17.3735C39.9277 16.5351 39.248 15.8555 38.4096 15.8555Z" fill="#443737"/>
<path d="M46 15.8555C45.1616 15.8555 44.4819 16.5351 44.4819 17.3735V18.8916C44.4819 19.73 45.1616 20.4097 46 20.4097C46.8384 20.4097 47.5181 19.7299 47.5181 18.8915V17.3735C47.5181 16.5351 46.8384 15.8555 46 15.8555Z" fill="#443737"/>
<path d="M53.5903 15.8555C52.7519 15.8555 52.0723 16.5351 52.0723 17.3735V18.8916C52.0723 19.73 52.7519 20.4097 53.5903 20.4097C54.4288 20.4097 55.1084 19.73 55.1084 18.8916V17.3735C55.1083 16.5351 54.4287 15.8555 53.5903 15.8555Z" fill="#443737"/>
<path d="M78.704 35.9999V19.0799H86.456C88.264 19.0799 89.656 19.4719 90.632 20.2559C91.624 21.0399 92.12 22.1119 92.12 23.4719C92.12 24.3679 91.896 25.1439 91.448 25.7999C91 26.4399 90.376 26.9199 89.576 27.2399C90.536 27.5119 91.272 27.9919 91.784 28.6799C92.312 29.3679 92.576 30.2159 92.576 31.2239C92.576 32.7279 92.048 33.9039 90.992 34.7519C89.952 35.5839 88.528 35.9999 86.72 35.9999H78.704ZM82.256 26.0399H85.808C87.632 26.0399 88.544 25.3359 88.544 23.9279C88.544 22.5359 87.632 21.8399 85.808 21.8399H82.256V26.0399ZM82.256 33.2399H86.216C87.176 33.2399 87.88 33.0559 88.328 32.6879C88.776 32.3199 89 31.7599 89 31.0079C89 30.2719 88.776 29.7199 88.328 29.3519C87.88 28.9839 87.176 28.7999 86.216 28.7999H82.256V33.2399Z" fill="#443737"/>
<path d="M102.639 36.2639C100.239 36.2639 98.4075 35.6479 97.1435 34.4159C95.8955 33.1839 95.2715 31.3519 95.2715 28.9199V19.0799H98.9915V28.9439C98.9915 30.3199 99.3035 31.3599 99.9275 32.0639C100.551 32.7519 101.455 33.0959 102.639 33.0959C105.055 33.0959 106.263 31.7119 106.263 28.9439V19.0799H109.935V28.9199C109.935 31.3519 109.319 33.1839 108.087 34.4159C106.855 35.6479 105.039 36.2639 102.639 36.2639Z" fill="#443737"/>
<path d="M113.227 35.9999V19.0799H120.955C122.843 19.0799 124.299 19.5359 125.323 20.4479C126.347 21.3599 126.859 22.6319 126.859 24.2639C126.859 25.5279 126.531 26.5839 125.875 27.4319C125.235 28.2639 124.315 28.8319 123.115 29.1359C123.963 29.3919 124.659 30.0079 125.203 30.9839L127.939 35.9999H123.835L120.907 30.5999C120.667 30.1679 120.371 29.8719 120.019 29.7119C119.667 29.5359 119.251 29.4479 118.771 29.4479H116.947V35.9999H113.227ZM116.947 26.7599H120.283C122.283 26.7599 123.283 25.9599 123.283 24.3599C123.283 22.7759 122.283 21.9839 120.283 21.9839H116.947V26.7599Z" fill="#443737"/>
<path d="M138.197 36.2639C136.293 36.2639 134.677 35.9039 133.349 35.1839C132.037 34.4639 131.037 33.4559 130.349 32.1599C129.661 30.8639 129.317 29.3439 129.317 27.5999C129.317 25.8079 129.669 24.2559 130.373 22.9439C131.093 21.6319 132.125 20.6159 133.469 19.8959C134.813 19.1759 136.429 18.8159 138.317 18.8159C139.501 18.8159 140.621 18.9839 141.677 19.3199C142.749 19.6559 143.621 20.1039 144.293 20.6639L143.093 23.5679C142.357 23.0239 141.605 22.6399 140.837 22.4159C140.069 22.1759 139.237 22.0559 138.341 22.0559C136.629 22.0559 135.341 22.5359 134.477 23.4959C133.629 24.4399 133.205 25.8079 133.205 27.5999C133.205 29.4079 133.637 30.7759 134.501 31.7039C135.381 32.6319 136.677 33.0959 138.389 33.0959C139.301 33.0959 140.261 32.9519 141.269 32.6639V29.3519H137.621V26.6639H144.341V34.9679C143.509 35.3839 142.549 35.7039 141.461 35.9279C140.373 36.1519 139.285 36.2639 138.197 36.2639Z" fill="#443737"/>
<path d="M155.482 36.2639C153.818 36.2639 152.354 35.9039 151.09 35.1839C149.842 34.4479 148.866 33.4319 148.162 32.1359C147.474 30.8239 147.13 29.2879 147.13 27.5279C147.13 25.7679 147.474 24.2399 148.162 22.9439C148.866 21.6319 149.842 20.6159 151.09 19.8959C152.338 19.1759 153.802 18.8159 155.482 18.8159C157.162 18.8159 158.626 19.1759 159.874 19.8959C161.138 20.6159 162.114 21.6319 162.802 22.9439C163.506 24.2399 163.858 25.7599 163.858 27.5039C163.858 29.2639 163.506 30.7999 162.802 32.1119C162.114 33.4239 161.138 34.4479 159.874 35.1839C158.626 35.9039 157.162 36.2639 155.482 36.2639ZM155.482 33.0959C156.89 33.0959 157.986 32.6079 158.77 31.6319C159.57 30.6399 159.97 29.2719 159.97 27.5279C159.97 25.7679 159.578 24.4079 158.794 23.4479C158.01 22.4719 156.906 21.9839 155.482 21.9839C154.09 21.9839 152.994 22.4719 152.194 23.4479C151.41 24.4079 151.018 25.7679 151.018 27.5279C151.018 29.2719 151.41 30.6399 152.194 31.6319C152.994 32.6079 154.09 33.0959 155.482 33.0959Z" fill="#443737"/>
<path d="M172.783 36.2639C171.455 36.2639 170.199 36.0959 169.015 35.7599C167.847 35.4239 166.871 34.9679 166.087 34.3919L167.167 31.4639C167.919 31.9919 168.775 32.4079 169.735 32.7119C170.711 33.0159 171.727 33.1679 172.783 33.1679C173.935 33.1679 174.759 32.9919 175.255 32.6399C175.767 32.2719 176.023 31.8159 176.023 31.2719C176.023 30.8079 175.847 30.4399 175.495 30.1679C175.143 29.8959 174.527 29.6639 173.647 29.4719L170.935 28.8959C167.911 28.2559 166.399 26.6879 166.399 24.1919C166.399 23.1199 166.687 22.1839 167.263 21.3839C167.839 20.5679 168.639 19.9359 169.663 19.4879C170.703 19.0399 171.903 18.8159 173.263 18.8159C174.431 18.8159 175.527 18.9839 176.551 19.3199C177.575 19.6559 178.423 20.1279 179.095 20.7359L178.015 23.4719C176.703 22.4319 175.111 21.9119 173.239 21.9119C172.231 21.9119 171.447 22.1119 170.887 22.5119C170.343 22.8959 170.071 23.3999 170.071 24.0239C170.071 24.4879 170.239 24.8639 170.575 25.1519C170.911 25.4399 171.495 25.6719 172.327 25.8479L175.039 26.4239C178.143 27.0959 179.695 28.6159 179.695 30.9839C179.695 32.0399 179.407 32.9679 178.831 33.7679C178.271 34.5519 177.471 35.1679 176.431 35.6159C175.407 36.0479 174.191 36.2639 172.783 36.2639Z" fill="#443737"/>
</g>
<defs>
<filter id="filter0_d_33_404" x="0" y="0" width="183.695" height="64" filterUnits="userSpaceOnUse" color-interpolation-filters="sRGB">
<feFlood flood-opacity="0" result="BackgroundImageFix"/>
<feColorMatrix in="SourceAlpha" type="matrix" values="0 0 0 0 0 0 0 0 0 0 0 0 0 0 0 0 0 0 127 0" result="hardAlpha"/>
<feOffset dy="4"/>
<feGaussianBlur stdDeviation="2"/>
<feComposite in2="hardAlpha" operator="out"/>
<feColorMatrix type="matrix" values="0 0 0 0 0 0 0 0 0 0 0 0 0 0 0 0 0 0 0.25 0"/>
<feBlend mode="normal" in2="BackgroundImageFix" result="effect1_dropShadow_33_404"/>
<feBlend mode="normal" in="SourceGraphic" in2="effect1_dropShadow_33_404" result="shape"/>
</filter>
</defs>
</svg>
